<svg width="41" height="22" viewBox="0 0 41 22" fill="none" xmlns="http://www.w3.org/2000/svg">
<path d="M0.709332 12.1609V0.929608H6.12539V12.6087C6.1023 13.1226 6.18261 13.6358 6.36227 14.1172C6.54194 14.5986 6.81595 15.038 7.16926 15.4089C7.53462 15.7552 7.96521 16.0252 8.43394 16.2036C8.90268 16.382 9.40253 16.4652 9.90339 16.4486C10.3922 16.4634 10.878 16.3775 11.3327 16.1962C11.7874 16.0148 12.2009 15.7418 12.5472 15.3937C12.8975 15.0208 13.1705 14.581 13.3491 14.1001C13.5288 13.6192 13.6111 13.107 13.5921 12.5935V0.929608H19.0071V12.1609C19.0563 13.4039 18.8505 14.6437 18.4019 15.8022C17.9532 16.9607 17.2717 18.0128 16.4015 18.8921C15.5503 19.7498 14.5355 20.4226 13.4184 20.8689C12.3003 21.3153 11.1048 21.5258 9.90339 21.4875C8.67584 21.5536 7.4483 21.3573 6.30005 20.9114C5.1528 20.4656 4.11092 19.7802 3.24371 18.9C2.3755 18.0199 1.701 16.9648 1.26438 15.8035C0.827765 14.6423 0.639072 13.4011 0.709332 12.1609ZM40.844 9.07991V21.0018H35.8706V19.0591C35.0826 19.867 34.1371 20.5002 33.0933 20.9183C32.0494 21.3364 30.9313 21.5303 29.8091 21.4875C27.9904 21.5788 26.2038 20.9867 24.7915 19.8256C24.1853 19.2844 23.7055 18.6146 23.3863 17.8642C23.0671 17.1138 22.9156 16.3012 22.9437 15.4848C22.9106 14.664 23.0762 13.8476 23.4255 13.1058C23.7748 12.3641 24.2977 11.7195 24.9491 11.2275C26.5561 10.0932 28.4892 9.52761 30.4475 9.61871H35.4279V8.76121C35.46 8.28431 35.3918 7.80591 35.2252 7.35821C35.0596 6.91061 34.8006 6.50401 34.4664 6.16581C34.096 5.83331 33.6624 5.57931 33.1926 5.41891C32.7229 5.25861 32.2261 5.19521 31.7322 5.23241C30.7968 5.21881 29.8724 5.44051 29.0433 5.87751C28.0837 6.44271 27.2175 7.15441 26.4738 7.98711L23.6724 4.62531C24.7092 3.31561 26.0301 2.26381 27.5327 1.55071C29.0362 0.837608 30.6803 0.482408 32.3405 0.512208C33.4757 0.450908 34.6109 0.620908 35.6788 1.01201C36.7478 1.40311 37.7274 2.00741 38.5605 2.78881C40.0872 4.25601 40.849 6.35301 40.844 9.07991ZM35.4279 13.5041V13.2613H31.1762C29.3283 13.2613 28.4049 13.9367 28.4049 15.2875C28.3929 15.598 28.4551 15.9068 28.5856 16.1881C28.7161 16.4693 28.9118 16.7148 29.1557 16.9039C29.774 17.3081 30.5007 17.5071 31.2364 17.4731C32.3415 17.5228 33.4205 17.1301 34.2405 16.3803C34.629 16.0131 34.9351 15.5668 35.1398 15.071C35.3446 14.5752 35.443 14.0411 35.4279 13.5041Z" fill="white"/>
</svg>
