<svg width="52" height="40" viewBox="0 0 52 40" fill="none" xmlns="http://www.w3.org/2000/svg">
<path d="M0 8C0 3.58172 3.58172 0 8 0H52V40H8C3.58172 40 0 36.4183 0 32V8Z" fill="#161616"/>
<rect x="17" y="15" width="7" height="8" fill="white"/>
<path d="M20.0765 10.9985H20.21C21.443 11.003 27.6905 11.048 29.375 11.501C29.8842 11.6393 30.3483 11.9088 30.7207 12.2825C31.0932 12.6563 31.361 13.1213 31.4975 13.631C31.649 14.201 31.7555 14.9555 31.8275 15.734L31.8425 15.89L31.8755 16.28L31.8875 16.436C31.985 17.807 31.997 19.091 31.9985 19.3715V19.484C31.997 19.775 31.9835 21.146 31.8755 22.574L31.8635 22.7315L31.85 22.8875C31.775 23.7455 31.664 24.5975 31.4975 25.2245C31.361 25.7343 31.0932 26.1992 30.7207 26.573C30.3483 26.9468 29.8842 27.2163 29.375 27.3545C27.635 27.8225 21.0215 27.8555 20.105 27.857H19.892C19.4285 27.857 17.5115 27.848 15.5015 27.779L15.2465 27.77L15.116 27.764L14.8595 27.7535L14.603 27.743C12.938 27.6695 11.3525 27.551 10.622 27.353C10.1129 27.2149 9.64902 26.9457 9.27658 26.5722C8.90413 26.1987 8.63618 25.734 8.4995 25.2245C8.333 24.599 8.222 23.7455 8.147 22.8875L8.135 22.73L8.123 22.574C8.04855 21.5577 8.00752 20.5391 8 19.52L8 19.3355C8.003 19.013 8.015 17.8985 8.096 16.6685L8.1065 16.514L8.111 16.436L8.123 16.28L8.156 15.89L8.171 15.734C8.243 14.9555 8.3495 14.1995 8.501 13.631C8.63746 13.1213 8.9053 12.6563 9.27776 12.2825C9.65022 11.9088 10.1143 11.6393 10.6235 11.501C11.354 11.306 12.9395 11.186 14.6045 11.111L14.8595 11.1005L15.1175 11.0915L15.2465 11.087L15.503 11.0765C16.9306 11.0306 18.3587 11.0051 19.787 11L20.0765 10.9985ZM17.6 15.8135V23.0405L23.8355 19.4285L17.6 15.8135Z" fill="#E73A3F"/>
</svg>
