<svg width="24" height="24" viewBox="0 0 24 24" fill="none" xmlns="http://www.w3.org/2000/svg">
<path d="M11.3414 2C9.82747 2 6.08248 2.15936 4.09045 4.07171C2.65618 5.42629 2.09841 7.49801 2.01873 9.96813C1.85937 13.8725 2.73587 16.3426 4.17013 17.6175C4.48885 17.8566 5.28567 18.494 6.79958 18.9721V20.9641C6.79958 20.9641 6.79958 21.761 7.27767 21.9203C7.35735 21.9203 7.43703 22 7.51671 22C7.9948 22 8.3932 21.4422 8.95097 20.8845C9.42906 20.3267 9.82747 19.9283 10.0665 19.5299H11.8195C13.3334 19.5299 17.0785 19.3705 19.0705 17.4582C20.5048 16.0239 21.0625 13.9522 21.0625 11.3227C21.1422 10.9243 21.1422 10.4462 21.1422 9.96813C21.0625 7.01992 20.186 5.02789 18.9908 3.91235C18.5127 3.51394 16.441 2 11.9789 2H11.3414ZM11.182 3.51394H11.8992C16.1223 3.51394 17.7159 4.86853 17.8753 5.02789C18.8315 5.8247 19.3892 7.57769 19.4689 9.88845V10.2072C19.5486 10.6853 19.5486 11.0837 19.5486 11.3227C19.4689 13.7131 18.9908 15.3068 18.0346 16.3426C16.3613 17.8566 12.8554 17.9363 11.8992 17.9363H10.3852L9.11033 19.3705L8.31352 20.247L8.15416 20.4861C7.9948 20.6454 7.75575 20.9641 7.59639 21.0438V17.4582C6.0028 17.0598 5.36535 16.502 5.20598 16.3426C4.09045 15.3865 3.453 13.0757 3.61236 9.96813V9.17131C3.77172 7.25896 4.24981 5.98406 5.04662 5.10757C6.71993 3.59363 10.2259 3.51394 11.182 3.51394ZM11.1024 5.26693C10.704 5.26693 10.704 5.8247 11.1024 5.8247C14.0506 5.8247 16.6004 7.81673 16.6004 11.5618C16.6004 11.9602 17.1581 11.9602 17.1581 11.5618C17.1581 7.49801 14.449 5.18725 11.1024 5.26693ZM7.9446 6.00398C7.76412 5.98235 7.58221 6.0321 7.43783 6.14263C6.64104 6.54104 5.84344 7.33944 6.08248 8.21594C6.08248 8.21594 6.24184 8.93227 7.1183 10.4462C7.59639 11.1633 7.9948 11.8008 8.3932 12.2789C8.79161 12.8367 9.42906 13.4741 10.0665 13.9522C11.3414 14.988 13.3334 16.0239 14.2099 16.2629C15.0067 16.502 15.8832 15.7052 16.2816 14.9084C16.441 14.5896 16.3613 14.1912 16.0426 13.9522C15.5645 13.4741 14.7677 12.9163 14.2099 12.5976C13.8115 12.3586 13.3334 12.5179 13.1741 12.757L12.7757 13.2351C12.6163 13.4741 12.2179 13.4741 12.2179 13.4741C9.58842 12.757 8.87129 10.0478 8.87129 10.0478C8.87129 10.0478 8.87129 9.72908 9.11033 9.49004L9.58842 9.09163C9.82747 8.93227 9.98683 8.45418 9.74779 8.05578C9.58842 7.81673 9.34938 7.33864 9.11033 7.0996C8.87129 6.78088 8.3932 6.22311 8.3932 6.22311C8.27233 6.10205 8.1144 6.02492 7.9446 6.00398ZM11.6601 6.86056C11.2617 6.78088 11.182 7.41833 11.5805 7.41833C13.8115 7.57769 15.0864 9.09163 15.0067 11.004C14.9271 11.4024 15.5645 11.4024 15.5645 11.004C15.6442 8.77291 14.2099 6.94024 11.6601 6.86056ZM11.8992 8.3745C11.5008 8.29482 11.5008 8.93227 11.8992 8.93227C12.8554 8.93227 13.3334 9.49004 13.3334 10.4462C13.4131 10.8446 13.9709 10.8446 13.9709 10.4462C13.8912 9.17131 13.1741 8.3745 11.8992 8.3745Z" fill="#161616"/>
</svg>
