<svg width="48" height="48" viewBox="0 0 48 48" fill="none" xmlns="http://www.w3.org/2000/svg">
<g filter="url(#filter0_b_0_732)">
<rect width="48" height="48" rx="24" fill="#161616"/>
<path d="M32.8889 35.8604C37.1769 34.601 40 32.4559 40 30.0214C40 26.1436 32.8366 23 24 23C15.1634 23 8 26.1436 8 30.0214C8 33.6355 14.2223 36.6119 22.2222 37" stroke="white" stroke-width="1.5" stroke-linecap="round"/>
<path d="M24.202 37.1523L19.7899 42.2328C19.7869 42.2291 19.7838 42.2247 19.7806 42.2195C19.7675 42.1981 19.75 42.1568 19.75 42.0875V31.9125C19.75 31.8432 19.7675 31.8019 19.7806 31.7805C19.7838 31.7753 19.7869 31.7709 19.7899 31.7672L24.202 36.8477C24.202 36.8477 24.202 36.8477 24.202 36.8477C24.266 36.9213 24.266 37.0787 24.202 37.1523C24.202 37.1523 24.202 37.1523 24.202 37.1523Z" fill="white" stroke="white" stroke-width="1.5"/>
<path d="M13.256 20.192C12.3493 20.192 11.5707 20.0213 10.92 19.68C10.28 19.328 9.79467 18.912 9.464 18.432L10.248 17.6C10.5573 18.016 10.968 18.3573 11.48 18.624C12.0027 18.88 12.584 19.008 13.224 19.008C14.0027 19.008 14.6107 18.832 15.048 18.48C15.496 18.1173 15.72 17.6267 15.72 17.008C15.72 16.6773 15.656 16.3947 15.528 16.16C15.4 15.9147 15.2187 15.7173 14.984 15.568C14.7493 15.4187 14.4667 15.3067 14.136 15.232C13.816 15.1573 13.4587 15.12 13.064 15.12C12.84 15.12 12.6213 15.12 12.408 15.12C12.1947 15.12 12.0453 15.1253 11.96 15.136V13.92C12.0453 13.9307 12.1947 13.936 12.408 13.936C12.632 13.936 12.8507 13.936 13.064 13.936C13.3947 13.936 13.7093 13.904 14.008 13.84C14.3173 13.7653 14.584 13.6587 14.808 13.52C15.032 13.3707 15.208 13.1893 15.336 12.976C15.4747 12.752 15.544 12.4853 15.544 12.176C15.544 11.8773 15.48 11.616 15.352 11.392C15.224 11.168 15.0533 10.9813 14.84 10.832C14.6267 10.672 14.3707 10.5547 14.072 10.48C13.784 10.3947 13.48 10.352 13.16 10.352C12.5733 10.352 12.056 10.464 11.608 10.688C11.16 10.9013 10.7387 11.2213 10.344 11.648L9.608 10.816C9.992 10.3467 10.488 9.95733 11.096 9.648C11.704 9.328 12.424 9.168 13.256 9.168C13.768 9.168 14.2427 9.232 14.68 9.36C15.128 9.488 15.512 9.67467 15.832 9.92C16.152 10.1547 16.4027 10.4533 16.584 10.816C16.776 11.168 16.872 11.568 16.872 12.016C16.872 12.4 16.7973 12.736 16.648 13.024C16.5093 13.312 16.328 13.5573 16.104 13.76C15.88 13.9627 15.6293 14.128 15.352 14.256C15.0853 14.3733 14.824 14.4533 14.568 14.496C14.8133 14.5173 15.08 14.5867 15.368 14.704C15.656 14.8213 15.9227 14.9867 16.168 15.2C16.4133 15.4133 16.616 15.68 16.776 16C16.9467 16.32 17.032 16.6933 17.032 17.12C17.032 17.568 16.9467 17.9787 16.776 18.352C16.6053 18.7253 16.3547 19.0507 16.024 19.328C15.704 19.5947 15.3093 19.808 14.84 19.968C14.3707 20.1173 13.8427 20.192 13.256 20.192ZM22.8343 20.192C22.0876 20.192 21.4529 20.0427 20.9303 19.744C20.4076 19.4347 19.9809 19.0293 19.6503 18.528C19.3303 18.016 19.0956 17.4293 18.9463 16.768C18.7969 16.1067 18.7223 15.4133 18.7223 14.688C18.7223 13.9627 18.8076 13.2693 18.9783 12.608C19.1489 11.936 19.4103 11.3493 19.7623 10.848C20.1249 10.336 20.5783 9.93067 21.1223 9.632C21.6663 9.32267 22.3116 9.168 23.0583 9.168C23.7516 9.168 24.3329 9.29067 24.8023 9.536C25.2823 9.77067 25.6876 10.0747 26.0183 10.448L25.3463 11.44C25.0689 11.12 24.7596 10.8587 24.4183 10.656C24.0769 10.4533 23.6236 10.352 23.0583 10.352C22.5463 10.352 22.0983 10.4747 21.7143 10.72C21.3409 10.9547 21.0263 11.2693 20.7703 11.664C20.5249 12.0587 20.3436 12.5067 20.2263 13.008C20.1089 13.5093 20.0503 14.0213 20.0503 14.544C20.0503 14.6187 20.0503 14.688 20.0503 14.752C20.0503 14.816 20.0556 14.8853 20.0663 14.96C20.1836 14.7787 20.3383 14.592 20.5303 14.4C20.7329 14.1973 20.9676 14.016 21.2343 13.856C21.5009 13.696 21.7889 13.5627 22.0983 13.456C22.4183 13.3493 22.7489 13.296 23.0903 13.296C23.5703 13.296 24.0183 13.3707 24.4343 13.52C24.8609 13.6587 25.2343 13.872 25.5543 14.16C25.8743 14.4373 26.1249 14.7893 26.3063 15.216C26.4876 15.6427 26.5783 16.1387 26.5783 16.704C26.5783 17.1733 26.4929 17.6213 26.3223 18.048C26.1516 18.464 25.9063 18.832 25.5863 19.152C25.2663 19.472 24.8716 19.728 24.4023 19.92C23.9436 20.1013 23.4209 20.192 22.8343 20.192ZM22.7863 19.008C23.2023 19.008 23.5596 18.9387 23.8583 18.8C24.1676 18.6613 24.4236 18.4853 24.6263 18.272C24.8289 18.048 24.9783 17.8027 25.0743 17.536C25.1809 17.2693 25.2343 17.008 25.2343 16.752C25.2343 16.3573 25.1703 16.016 25.0423 15.728C24.9143 15.44 24.7383 15.2 24.5143 15.008C24.2903 14.816 24.0289 14.6773 23.7303 14.592C23.4316 14.496 23.1116 14.448 22.7703 14.448C22.2369 14.448 21.7303 14.5973 21.2503 14.896C20.7809 15.184 20.3969 15.568 20.0983 16.048C20.1303 16.3787 20.1996 16.72 20.3063 17.072C20.4236 17.424 20.5836 17.744 20.7863 18.032C20.9996 18.32 21.2663 18.5547 21.5863 18.736C21.9169 18.9173 22.3169 19.008 22.7863 19.008ZM32.2554 20.192C31.5194 20.192 30.8954 20.0267 30.3834 19.696C29.8714 19.3653 29.45 18.9387 29.1194 18.416C28.7887 17.8827 28.5487 17.2907 28.3994 16.64C28.25 15.9787 28.1754 15.3227 28.1754 14.672C28.1754 14.0213 28.25 13.3707 28.3994 12.72C28.5487 12.0587 28.7887 11.4667 29.1194 10.944C29.45 10.4213 29.8714 9.99467 30.3834 9.664C30.8954 9.33333 31.5194 9.168 32.2554 9.168C32.9807 9.168 33.5994 9.33333 34.1114 9.664C34.634 9.99467 35.0554 10.4213 35.3754 10.944C35.706 11.4667 35.946 12.0587 36.0954 12.72C36.2554 13.3707 36.3354 14.0213 36.3354 14.672C36.3354 15.3227 36.2554 15.9787 36.0954 16.64C35.946 17.2907 35.706 17.8827 35.3754 18.416C35.0554 18.9387 34.634 19.3653 34.1114 19.696C33.5994 20.0267 32.9807 20.192 32.2554 20.192ZM32.2554 19.008C32.7674 19.008 33.194 18.8853 33.5354 18.64C33.8874 18.384 34.17 18.0533 34.3834 17.648C34.5967 17.232 34.746 16.768 34.8314 16.256C34.9274 15.7333 34.9754 15.2053 34.9754 14.672C34.9754 14.1387 34.9274 13.616 34.8314 13.104C34.746 12.5813 34.5967 12.1173 34.3834 11.712C34.17 11.3067 33.8874 10.9813 33.5354 10.736C33.194 10.48 32.7674 10.352 32.2554 10.352C31.7434 10.352 31.3114 10.48 30.9594 10.736C30.618 10.9813 30.3407 11.3067 30.1274 11.712C29.914 12.1173 29.7594 12.5813 29.6634 13.104C29.578 13.616 29.5354 14.1387 29.5354 14.672C29.5354 15.2053 29.578 15.7333 29.6634 16.256C29.7594 16.768 29.914 17.232 30.1274 17.648C30.3407 18.0533 30.618 18.384 30.9594 18.64C31.3114 18.8853 31.7434 19.008 32.2554 19.008Z" fill="white"/>
</g>
<defs>
<filter id="filter0_b_0_732" x="-6" y="-6" width="60" height="60" filterUnits="userSpaceOnUse" color-interpolation-filters="sRGB">
<feFlood flood-opacity="0" result="BackgroundImageFix"/>
<feGaussianBlur in="BackgroundImageFix" stdDeviation="3"/>
<feComposite in2="SourceAlpha" operator="in" result="effect1_backgroundBlur_0_732"/>
<feBlend mode="normal" in="SourceGraphic" in2="effect1_backgroundBlur_0_732" result="shape"/>
</filter>
</defs>
</svg>
