<svg width="232" height="40" viewBox="0 0 232 40" fill="none" xmlns="http://www.w3.org/2000/svg">
<path d="M0.000183105 0H225.334C229.015 0 232 2.98477 232 6.66667V33.3333C232 37.0152 229.015 40 225.334 40H0.000183105V0Z" fill="black"/>
<path d="M40 37.5C49.665 37.5 57.5 29.665 57.5 20C57.5 10.335 49.665 2.5 40 2.5C30.335 2.5 22.5 10.335 22.5 20C22.5 29.665 30.335 37.5 40 37.5Z" fill="#40A600"/>
<path d="M48.833 12.1663L37.4997 23.4996L32.833 18.8329L30.4997 21.1663L37.4997 28.1663L51.1664 14.4996L48.833 12.1663Z" fill="white"/>
<g clip-path="url(#clip0_0_761)">
<path d="M187 0H64.0002V40H187V0Z" fill="black"/>
<path d="M85.9327 27.9664L85.0194 25.5647H78.4435L77.5302 27.9664H74.0002L81.1972 9.18193H82.2977L89.4718 27.9664H85.9327ZM83.8823 22.4619L81.736 16.2248L79.5897 22.4619H83.8823ZM90.9697 21.8706V14.1266H94.2622V22.1793C94.2418 22.5308 94.2866 22.8833 94.3937 23.2136C94.5007 23.5439 94.6676 23.8444 94.8832 24.0955C95.0989 24.3466 95.3585 24.5425 95.645 24.6704C95.9316 24.7982 96.2384 24.8552 96.5455 24.8374C96.8432 24.8477 97.1396 24.7886 97.4167 24.6635C97.6938 24.5385 97.9459 24.3502 98.1575 24.1101C98.3719 23.8538 98.5394 23.551 98.65 23.2193C98.7605 22.8877 98.812 22.5341 98.8014 22.1793V14.1266H102.094V21.8706C102.123 22.7275 101.997 23.582 101.724 24.3806C101.451 25.1792 101.038 25.9047 100.509 26.5118C99.9916 27.1035 99.3737 27.5676 98.6936 27.8754C98.0134 28.1832 97.2855 28.3281 96.5546 28.3013C95.8084 28.3469 95.0621 28.2116 94.3646 27.9041C93.6672 27.5967 93.0342 27.124 92.507 26.517C91.9799 25.9101 91.5705 25.1825 91.3056 24.3818C91.0407 23.5812 90.9262 22.7254 90.9697 21.8706ZM113.004 24.8269V27.9664C112.257 28.186 111.49 28.2984 110.72 28.3013C109.177 28.3013 107.982 27.8635 107.135 26.9879C106.289 26.1124 105.878 24.8164 105.902 23.1002V17.3184H103.998V14.1266H105.902V10.6366H109.195V14.1266H112.611V17.3184H109.195V22.7654C109.169 23.0711 109.201 23.3796 109.289 23.6696C109.378 23.9597 109.52 24.2242 109.706 24.445C110.226 24.8097 110.834 24.9764 111.442 24.9211C111.716 24.9211 112.236 24.8845 113.004 24.8269ZM114.474 21.0544C114.451 20.0967 114.606 19.1443 114.93 18.2609C115.254 17.3776 115.738 16.5835 116.351 15.9318C117.59 14.5875 119.232 13.8383 120.938 13.8383C122.645 13.8383 124.286 14.5875 125.525 15.9318C126.144 16.5778 126.635 17.3694 126.963 18.2526C127.291 19.1358 127.449 20.0897 127.425 21.0491C127.448 22.0123 127.29 22.9698 126.962 23.8572C126.635 24.7445 126.144 25.5409 125.525 26.1926C124.921 26.8828 124.201 27.4245 123.407 27.7844C122.615 28.1443 121.765 28.3149 120.913 28.2856C120.067 28.3138 119.225 28.1427 118.44 27.7826C117.654 27.4226 116.942 26.8814 116.346 26.1926C115.735 25.5321 115.252 24.7312 114.929 23.8421C114.607 22.9531 114.452 21.9959 114.474 21.0334V21.0544ZM123.151 23.7647C123.453 23.4113 123.69 22.9912 123.847 22.5298C124.004 22.0684 124.078 21.5754 124.064 21.0805C124.074 20.5821 124 20.0861 123.843 19.621C123.686 19.1559 123.451 18.7308 123.151 18.3701C122.862 18.0262 122.515 17.7526 122.132 17.5658C121.748 17.3789 121.336 17.2826 120.92 17.2826C120.503 17.2826 120.091 17.3789 119.708 17.5658C119.324 17.7526 118.978 18.0262 118.689 18.3701C118.096 19.1056 117.781 20.0798 117.812 21.0805C117.782 22.073 118.098 23.0385 118.689 23.7647C118.981 24.1016 119.329 24.3688 119.712 24.5512C120.095 24.7336 120.505 24.8275 120.92 24.8275C121.334 24.8275 121.745 24.7336 122.128 24.5512C122.51 24.3688 122.858 24.1016 123.151 23.7647ZM141.07 15.9161C142.204 17.3074 142.81 19.1571 142.755 21.0596C142.804 22.9782 142.199 24.8433 141.07 26.2606C140.548 26.9348 139.904 27.4712 139.183 27.8325C138.463 28.1938 137.682 28.3717 136.896 28.3536C136.225 28.3888 135.555 28.2574 134.932 27.9684C134.31 27.6794 133.749 27.2396 133.288 26.6792V33H129.996V14.1266H133.019V15.8637C133.85 14.5033 135.142 13.8231 136.896 13.8231C137.682 13.8 138.462 13.9728 139.183 14.3297C139.905 14.6866 140.55 15.2189 141.074 15.8899L141.07 15.9161ZM139.412 21.0857C139.434 20.5771 139.368 20.0684 139.217 19.5895C139.065 19.1107 138.832 18.6712 138.531 18.2969C138.243 17.9503 137.894 17.6779 137.508 17.4974C137.121 17.317 136.706 17.2328 136.289 17.2504C135.881 17.2383 135.477 17.3217 135.099 17.4953C134.722 17.669 134.379 17.9293 134.092 18.2602C133.795 18.6377 133.567 19.0792 133.42 19.5589C133.274 20.0387 133.212 20.547 133.238 21.0544C133.188 22.0881 133.495 23.1032 134.092 23.8799C134.379 24.2099 134.722 24.4692 135.1 24.6419C135.477 24.8147 135.882 24.8972 136.289 24.8845C136.71 24.8961 137.128 24.8035 137.515 24.6129C137.902 24.4225 138.248 24.1384 138.531 23.7805C138.829 23.4169 139.06 22.9892 139.212 22.5221C139.365 22.0549 139.434 21.5577 139.417 21.0596L139.412 21.0857ZM155.464 19.7724V27.9664H152.436V26.6269C151.958 27.185 151.383 27.6223 150.748 27.9106C150.114 28.199 149.433 28.332 148.751 28.3013C147.647 28.3644 146.561 27.9561 145.705 27.1553C145.337 26.7822 145.045 26.3205 144.851 25.803C144.656 25.2856 144.565 24.7253 144.582 24.1624C144.562 23.5965 144.662 23.0335 144.875 22.5221C145.087 22.0107 145.405 21.5662 145.801 21.227C146.779 20.4438 147.956 20.0537 149.148 20.1178H152.171V19.5265C152.192 19.1976 152.15 18.8674 152.049 18.5586C151.949 18.2498 151.791 17.9695 151.587 17.737C151.365 17.5107 151.105 17.3373 150.823 17.2268C150.542 17.1163 150.244 17.071 149.947 17.0934C149.379 17.0833 148.816 17.2362 148.312 17.5381C147.728 17.9255 147.201 18.4165 146.751 18.9928L145.043 16.6748C145.671 15.7746 146.471 15.051 147.382 14.5595C148.292 14.068 149.288 13.8214 150.294 13.8388C150.981 13.7993 151.668 13.9179 152.314 14.1876C152.961 14.4571 153.553 14.8723 154.057 15.4085C154.995 16.4201 155.465 17.866 155.469 19.7462L155.464 19.7724ZM152.167 22.8229V22.6293H149.582C148.459 22.6293 147.897 23.095 147.897 24.0264C147.89 24.2405 147.928 24.4534 148.007 24.6473C148.086 24.8412 148.205 25.0105 148.354 25.1409C148.731 25.4197 149.175 25.5568 149.623 25.5333C150.295 25.5687 150.952 25.2978 151.45 24.7798C151.686 24.5267 151.872 24.2189 151.997 23.8771C152.121 23.5352 152.18 23.167 152.171 22.7967L152.167 22.8229ZM166.049 14.1527V17.4806H165.172C164.301 17.4255 163.444 17.7572 162.779 18.4067C162.48 18.7594 162.25 19.1802 162.103 19.6419C161.956 20.1035 161.896 20.5955 161.926 21.0857V27.9664H158.624V14.1266H161.647V15.7801C162.035 15.1974 162.539 14.7285 163.116 14.412C163.693 14.0955 164.327 13.9403 164.967 13.9592C165.334 13.952 165.701 14.0084 166.054 14.1266L166.049 14.1527ZM180 27.9664H176.242L171.41 20.3061V27.9664H168.118V7H171.41V20.0288L175.753 14.1266H179.631L175.091 20.2486L180 27.9664Z" fill="white"/>
<path d="M232 0H188V40H232V0Z" fill="#DA2025"/>
<path d="M196.01 20.8845V12.3273H199.787V21.2257C199.771 21.6172 199.827 22.0082 199.953 22.375C200.078 22.7418 200.269 23.0766 200.515 23.3592C200.77 23.623 201.07 23.8287 201.397 23.9646C201.724 24.1006 202.073 24.164 202.422 24.1513C202.763 24.1626 203.102 24.0971 203.419 23.959C203.736 23.8208 204.024 23.6128 204.266 23.3476C204.51 23.0635 204.701 22.7284 204.825 22.362C204.951 21.9956 205.008 21.6053 204.995 21.2141V12.3273H208.771V20.8845C208.805 21.8315 208.662 22.7761 208.349 23.6588C208.036 24.5415 207.561 25.3431 206.954 26.013C206.36 26.6665 205.653 27.1791 204.874 27.5192C204.094 27.8593 203.26 28.0196 202.422 27.9905C201.566 28.0408 200.71 27.8913 199.909 27.5515C199.109 27.2119 198.382 26.6897 197.778 26.019C197.172 25.3485 196.702 24.5446 196.397 23.6598C196.093 22.7751 195.961 21.8294 196.01 20.8845ZM224 18.5371V27.6204H220.532V26.1403C219.982 26.7558 219.323 27.2382 218.595 27.5568C217.867 27.8753 217.087 28.0231 216.304 27.9905C215.036 28.06 213.79 27.6089 212.805 26.7243C212.382 26.3119 212.048 25.8016 211.825 25.2299C211.603 24.6581 211.497 24.039 211.516 23.417C211.493 22.7916 211.609 22.1696 211.852 21.6044C212.096 21.0393 212.461 20.5482 212.915 20.1733C214.036 19.3091 215.384 18.8782 216.75 18.9476H220.223V18.2942C220.245 17.9309 220.198 17.5664 220.082 17.2253C219.966 16.8843 219.785 16.5745 219.552 16.3168C219.294 16.0635 218.992 15.8699 218.664 15.7477C218.337 15.6256 217.99 15.5773 217.646 15.6056C216.993 15.5953 216.349 15.7642 215.77 16.0971C215.101 16.5278 214.497 17.07 213.978 17.7045L212.025 15.1431C212.748 14.1452 213.669 13.3439 214.717 12.8005C215.765 12.2572 216.912 11.9866 218.07 12.0093C218.862 11.9626 219.653 12.0921 220.398 12.3901C221.143 12.6881 221.827 13.1485 222.408 13.7439C223.472 14.8617 224.004 16.4594 224 18.5371ZM220.223 21.9079V21.7229H217.258C215.969 21.7229 215.325 22.2375 215.325 23.2667C215.317 23.5032 215.36 23.7385 215.451 23.9528C215.542 24.1671 215.679 24.3541 215.849 24.4982C216.28 24.8062 216.787 24.9578 217.3 24.9319C218.071 24.9697 218.823 24.6705 219.395 24.0993C219.666 23.8195 219.879 23.4795 220.022 23.1017C220.165 22.724 220.233 22.317 220.223 21.9079Z" fill="white"/>
</g>
<defs>
<clipPath id="clip0_0_761">
<rect x="64.0002" width="168" height="40" rx="6.66667" fill="white"/>
</clipPath>
</defs>
</svg>
