<svg width="170" height="38" viewBox="0 0 170 38" fill="none" xmlns="http://www.w3.org/2000/svg">
<path d="M19.1719 30.6432L17.7113 27.133H7.19505L5.73444 30.6432H0.0892334L11.5988 3.18897H13.3588L24.8317 30.6432H19.1719ZM15.8929 22.5981L12.4605 13.4824L9.02804 22.5981H15.8929ZM27.2271 21.7339V10.4158H32.4925V22.1851C32.4599 22.6989 32.5316 23.2141 32.7028 23.6968C32.874 24.1795 33.1408 24.6187 33.4857 24.9857C33.8306 25.3527 34.2458 25.639 34.704 25.8259C35.1622 26.0128 35.6529 26.096 36.1441 26.07C36.6201 26.0851 37.0942 25.9987 37.5373 25.8159C37.9805 25.6332 38.3836 25.358 38.722 25.007C39.0649 24.6325 39.3327 24.1899 39.5095 23.7052C39.6864 23.2205 39.7687 22.7037 39.7517 22.1851V10.4158H45.0171V21.7339C45.0632 22.9863 44.8619 24.2352 44.4258 25.4024C43.9897 26.5696 43.3284 27.63 42.483 28.5172C41.6552 29.3821 40.6669 30.0604 39.5793 30.5102C38.4916 30.96 37.3274 31.1718 36.1586 31.1326C34.9652 31.1993 33.7718 31.0015 32.6563 30.5521C31.541 30.1028 30.5287 29.412 29.6856 28.5249C28.8427 27.6378 28.188 26.5744 27.7643 25.4042C27.3407 24.234 27.1576 22.9833 27.2271 21.7339ZM62.4639 26.0547V30.6432C61.2708 30.9641 60.0443 31.1285 58.8125 31.1326C56.3441 31.1326 54.4331 30.4928 53.0796 29.2131C51.7262 27.9335 51.0688 26.0394 51.1078 23.5311V15.0807H48.0625V10.4158H51.1078V5.315H56.3733V10.4158H61.8359V15.0807H56.3733V23.0417C56.3315 23.4885 56.3831 23.9394 56.5243 24.3633C56.6656 24.7872 56.8931 25.1738 57.1912 25.4965C58.0228 26.0296 58.9943 26.2732 59.9663 26.1924C60.4045 26.1924 61.2371 26.1389 62.4639 26.0547ZM64.8156 20.541C64.7784 19.1413 65.027 17.7494 65.5447 16.4583C66.0623 15.1672 66.8369 14.0067 67.8171 13.0541C69.7987 11.0894 72.4239 9.9944 75.1528 9.9944C77.8823 9.9944 80.5071 11.0894 82.4884 13.0541C83.4791 13.9983 84.264 15.1553 84.7879 16.4461C85.3129 17.737 85.5648 19.1311 85.5267 20.5333C85.5638 21.941 85.3109 23.3405 84.7869 24.6374C84.263 25.9342 83.4791 27.0982 82.4884 28.0507C81.5228 29.0595 80.3706 29.8512 79.1019 30.3772C77.8342 30.9032 76.4761 31.1525 75.1127 31.1097C73.7603 31.151 72.4141 30.9008 71.1577 30.3746C69.9015 29.8484 68.7619 29.0574 67.8098 28.0507C66.8318 27.0854 66.0597 25.9148 65.5437 24.6154C65.0277 23.316 64.7796 21.9171 64.8156 20.5104V20.541ZM78.6913 24.5023C79.1751 23.9857 79.5545 23.3718 79.8055 22.6974C80.0564 22.0231 80.1738 21.3025 80.1518 20.5792C80.1688 19.8507 80.0494 19.1258 79.7984 18.4461C79.5475 17.7663 79.1711 17.145 78.6913 16.6178C78.2296 16.1152 77.6756 15.7154 77.0623 15.4423C76.4491 15.1692 75.7898 15.0284 75.1236 15.0284C74.4575 15.0284 73.7982 15.1692 73.1852 15.4423C72.5722 15.7154 72.0181 16.1152 71.5562 16.6178C70.6078 17.6928 70.1038 19.1167 70.154 20.5792C70.1064 22.0298 70.6107 23.4409 71.5562 24.5023C72.0238 24.9946 72.5796 25.3852 73.1919 25.6518C73.8041 25.9184 74.4606 26.0556 75.1236 26.0556C75.7867 26.0556 76.443 25.9184 77.0553 25.6518C77.6676 25.3852 78.2236 24.9946 78.6913 24.5023ZM107.348 13.0312C109.161 15.0646 110.131 17.768 110.042 20.5486C110.121 23.3527 109.154 26.0786 107.348 28.1501C106.513 29.1355 105.484 29.9194 104.331 30.4475C103.179 30.9756 101.93 31.2355 100.673 31.2091C99.5998 31.2605 98.5288 31.0685 97.5331 30.6461C96.5374 30.2237 95.6401 29.581 94.9034 28.7619V38H89.6379V10.4158H94.4728V12.9547C95.8017 10.9664 97.8684 9.9722 100.673 9.9722C101.929 9.9384 103.178 10.191 104.331 10.7126C105.486 11.2342 106.517 12.0123 107.356 12.993L107.348 13.0312ZM104.697 20.5868C104.733 19.8434 104.626 19.1 104.385 18.4001C104.143 17.7002 103.769 17.0579 103.287 16.5108C102.828 16.0043 102.27 15.6061 101.651 15.3424C101.033 15.0787 100.369 14.9556 99.7022 14.9813C99.0508 14.9637 98.4044 15.0855 97.8001 15.3393C97.1959 15.5931 96.6479 15.9736 96.1892 16.4572C95.7144 17.009 95.349 17.6542 95.1142 18.3553C94.8803 19.0565 94.7809 19.7994 94.8231 20.541C94.7428 22.0519 95.2336 23.5354 96.1892 24.6706C96.6479 25.1529 97.1969 25.5319 97.8011 25.7843C98.4044 26.0368 99.0518 26.1575 99.7022 26.1389C100.376 26.1559 101.044 26.0205 101.663 25.742C102.282 25.4636 102.836 25.0485 103.287 24.5253C103.764 23.994 104.135 23.3688 104.377 22.6861C104.621 22.0033 104.732 21.2767 104.705 20.5486L104.697 20.5868ZM130.367 18.6673V30.6432H125.525V28.6854C124.76 29.5012 123.841 30.1403 122.826 30.5617C121.811 30.9832 120.723 31.1776 119.632 31.1326C117.866 31.2249 116.13 30.6281 114.761 29.4578C114.172 28.9125 113.705 28.2376 113.395 27.4813C113.084 26.7251 112.937 25.9062 112.964 25.0835C112.932 24.2564 113.093 23.4336 113.433 22.6862C113.772 21.9387 114.281 21.2891 114.914 20.7933C116.478 19.6486 118.36 19.0785 120.267 19.1721H125.101V18.3079C125.134 17.8272 125.068 17.3447 124.907 16.8933C124.746 16.442 124.493 16.0324 124.167 15.6925C123.811 15.3618 123.396 15.1083 122.946 14.9468C122.496 14.7854 122.02 14.7191 121.545 14.7519C120.636 14.7372 119.736 14.9606 118.93 15.4019C117.996 15.968 117.153 16.6856 116.433 17.5279L113.702 14.1401C114.707 12.8244 115.986 11.7669 117.442 11.0485C118.898 10.3301 120.491 9.9698 122.1 9.9952C123.198 9.9375 124.297 10.1108 125.33 10.5049C126.364 10.8989 127.311 11.5057 128.117 12.2894C129.617 13.7679 130.37 15.8811 130.375 18.6291L130.367 18.6673ZM125.094 23.1258V22.8428H120.961C119.164 22.8428 118.266 23.5234 118.266 24.8847C118.255 25.1976 118.315 25.5088 118.442 25.7922C118.569 26.0756 118.759 26.323 118.997 26.5136C119.6 26.9211 120.309 27.1215 121.026 27.0871C122.101 27.1389 123.151 26.743 123.948 25.9859C124.325 25.6159 124.623 25.1661 124.822 24.6665C125.021 24.1668 125.116 23.6287 125.101 23.0875L125.094 23.1258ZM147.295 10.454V15.3178H145.893C144.499 15.2373 143.129 15.722 142.066 16.6714C141.588 17.1868 141.22 17.8019 140.985 18.4766C140.749 19.1513 140.653 19.8703 140.701 20.5868V30.6432H135.42V10.4158H140.255V12.8324C140.877 11.9808 141.682 11.2955 142.604 10.8329C143.527 10.3703 144.541 10.1435 145.565 10.1711C146.152 10.1606 146.738 10.2431 147.302 10.4158L147.295 10.454ZM169.606 30.6432H163.596L155.869 19.4474V30.6432H150.604V0H155.869V19.0421L162.814 10.4158H169.015L161.755 19.3633L169.606 30.6432Z" fill="white"/>
</svg>
